<svg id="Layer_1" data-name="Layer 1" xmlns="http://www.w3.org/2000/svg" viewBox="0 0 35.5 42.92"><defs><style>.cls-1{fill:#6c63ff;}.cls-2{font-size:32px;fill:#fff;font-family:PTSans-Caption, PT Sans Caption;}</style></defs><path class="cls-1" d="M33.2,8.7v.2a17.77,17.77,0,0,0-6.5-6.5A17.51,17.51,0,0,0,9,2.4,17.77,17.77,0,0,0,2.5,8.9,17.59,17.59,0,0,0,9.93,33.68a4.49,4.49,0,0,0,1.76.73l.51.19a1,1,0,0,0,.9-.1h.05l.51,0H14.8a5.67,5.67,0,0,0,2.32,0h.42a5.54,5.54,0,0,0,1.18.13,5,5,0,0,0,1-.09,6,6,0,0,0,1,.09,5.87,5.87,0,0,0,.74-.05,6,6,0,0,0,.75.05,5.7,5.7,0,0,0,.95-.08.77.77,0,0,0,.29,0l.12,0a6.21,6.21,0,0,0,.61-.2A4.52,4.52,0,0,0,25,33.9,17.43,17.43,0,0,0,35.5,17.7,17.43,17.43,0,0,0,33.2,8.7Z" transform="translate(0 0)"/><text class="cls-2" transform="translate(10.24 34.89)">F</text></svg>